# xmcd
#
# Track frame offsets: 
#        150
#        12753
#        33767
#        52849
#        69757
#        112105
#        131270
#        151798
#        170708
#        191140
#        223852
#        242560
#
# Disc length: 3600 seconds
#
# Revision: 0
# Processed by: cddbd v1.5.2PL0 Copyright (c) Steve Scherf et al.
# Submitted via: ExactAudioCopyFreeDBPlugin 1.0
#
DISCID=970e0e0c
DTITLE=Texas Slim - Cookin' With Gas
DYEAR=2011
DGENRE=Blues
TTITLE0=Wlcome To The Game
TTITLE1=See See Baby
TTITLE2=Driving Blues
TTITLE3=Coffee Shop Girl
TTITLE4=High Alert
TTITLE5=Mellow Together
TTITLE6=When It's Cold Outside
TTITLE7=Funky Love
TTITLE8=Expresso Girl
TTITLE9=Boot Hill
TTITLE10=Drama Queen
TTITLE11=I'm Good
EXTD=
EXTT0=
EXTT1=
EXTT2=
EXTT3=
EXTT4=
EXTT5=
EXTT6=
EXTT7=
EXTT8=
EXTT9=
EXTT10=
EXTT11=
PLAYORDER=
